<svg id="Layer_1" data-name="Layer 1" xmlns="http://www.w3.org/2000/svg" viewBox="0 0 643.97 643.4"><defs><style>.cls-1,.cls-2{fill:none;stroke:#485b4a;stroke-miterlimit:10;}.cls-1{stroke-width:3px;}.cls-3{fill:#485b4a;}</style></defs><title>Lotus</title><path class="cls-1" d="M467.94,238.83c0-36.21-37-65.56-82.72-65.56a100.78,100.78,0,0,0-35.13,6.19,80.66,80.66,0,0,1-56.21,0,100.84,100.84,0,0,0-35.14-6.19c-45.68,0-82.71,29.35-82.71,65.56,0,16.43,7.64,31.45,20.24,43a14.82,14.82,0,0,1,4.75,11V442.48a15.05,15.05,0,0,0,15,15H429.61a15.05,15.05,0,0,0,15.05-15V291.14a14.78,14.78,0,0,1,4.47-10.69C460.88,269.13,467.94,254.63,467.94,238.83Z"/><path class="cls-2" d="M441,344.7c3.14,38.41-95.12,17.78-88.24,67.34,11.93,86-177.34-11.27-142.21-57.12,27.82-36.31-11.11-96.77,3-140.27s88.57,22.95,123.67-6.38c36.6-30.59,129.85,14.09,82.49,51C393.11,280,439.45,325.92,441,344.7Z"/><path class="cls-3" d="M410.72,275.47c-39-2.42-46.07-87.25-80.35-68.59S284.75,285.82,246.22,292c-48.66,7.8,11.5,179.11,54.58,118.81,24.82-34.74,73.58,35.68,94.16,10.05,10.07-12.54,8.29-68.16,36.94-65.4C482.89,360.37,451.34,278,410.72,275.47ZM305.13,380.7a38.09,38.09,0,1,1,38.09-38.09A38.09,38.09,0,0,1,305.13,380.7Z"/></svg>