<svg id="Layer_1" data-name="Layer 1" xmlns="http://www.w3.org/2000/svg" viewBox="0 0 643.97 643.4"><defs><style>.cls-1{fill:none;stroke:#485b49;stroke-miterlimit:10;stroke-width:9px;}.cls-2{fill:#485b49;}</style></defs><title>ramen</title><circle class="cls-1" cx="321.8" cy="321.75" r="321.65"/><path class="cls-2" d="M359.44,273.27a56.43,56.43,0,0,0-16.6,34.79c-1.1,11.19,2.53,27,16.19,28a17.55,17.55,0,0,0,14.48-6,15.78,15.78,0,0,0,3.49-7c.55-2.68-.35-5.74,2.66-7,5.65-2.29,9.46,5.62,10.57,9.77,2,7.36,2.29,15.29,3.2,22.83,1.88,15.6,3.53,31.26,5.7,46.83,1.68,12,5.12,24.58,15.52,31.91,10.12,7.14,25.53,8.66,36.76,3.47,12-5.56,16.93-19.1,15.65-31.66-.93-9-4.34-17.29-7.38-25.73A249.91,249.91,0,0,1,452,348.19a193.73,193.73,0,0,1-4.89-25.94c-.41-3.93-.63-8.1.78-11.85,1-2.69,4.17-7.39,7.72-5.72l3-11.09c-6.76-.31-12.25,5.56-12.1,12.26.15,6.91,6.26,12.53,12.55,14.35,12.89,3.73,26.34-5.79,24.5-19.61-2-14.88-15.13-27.91-28.12-34.11-14.48-6.91-31.75-9.39-47.68-9a161.5,161.5,0,0,0-28.75,3.19,33.18,33.18,0,0,0-20.5,13.22c-4.57,6.16,5.76,12.1,10.28,6,3.71-5,9.22-7,15.16-8.08a177.22,177.22,0,0,1,20.15-2.28,106.92,106.92,0,0,1,39.05,4.79c11.61,3.8,22.11,11.52,27.15,22.94,1.85,4.18,2.86,9.44-2.32,11.31a9,9,0,0,1-5.76.16c-1.25-.4-4.28-3.26-3.61-3.23,5.7.26,8.39-8.56,3-11.09-12.58-5.91-24,4.35-26.17,16.64-1.23,6.95,0,14,1.11,20.89q1.81,11.19,4.65,22.18,2.58,10.06,6,19.89c2.66,7.64,6,15.14,7.55,23.13,2.31,12.19-2.82,24.23-16.42,24.85-5.91.27-12.86-1.1-17.64-4.77-4.44-3.43-6.67-8.86-8.08-14.11-3.6-13.45-4.14-28-5.8-41.82L404.28,340c-.89-7.38-1.3-15-4.22-22-4.19-9.89-15-17.57-25.73-12.57a15.45,15.45,0,0,0-6.81,6c-1.87,3.15-1,6.56-2.28,9.68-2.34,5.61-8.18,2.78-9.76-1.62-4.6-12.82,3.46-28.95,12.38-37.76,5.46-5.39-3-13.81-8.42-8.42Z"/><path class="cls-2" d="M90.19,294.63c20.08-10.26,36.36-26.08,54.06-39.75A394.8,394.8,0,0,1,201,218.54c9.52-5,19.28-10.11,29.36-13.94,4.53-1.72,9.48-3.54,14.39-3.46,4.09.06,7.11,1.32,9.31,4,3.83,4.6,4.26,11.66,1.78,18.07-3.29,8.5-10.95,15.43-18.54,20.09-8.22,5-19,8.23-27.53,6.27-8.33-1.92-15.7-7.2-18.17-14.78L174.06,248.2A45.5,45.5,0,0,1,194,272.35a43.18,43.18,0,0,1,2.7,16.35c-.07,4-.25,10.21-3.31,13.6-2.3,2.55-7.52,2.37-12.19,2.23-7.27-.23-14.6-.83-21.82-1.73-13.3-1.64-27.6-5-38.46-13.25-9.57-7.28-17.51-19.89-15.84-30.95,1-6.35-1.6-12.8-8.32-14.65-5.88-1.61-13.35,2-14.64,8.32-5.95,29.16,21.05,56.19,50.26,49,12.47-3.07,23.78-12.45,36.16-13.74,10.63-1.1,21.62,2.22,26.7,10.94,4.49,7.72,4.18,17.12-2.88,22.3-9,6.58-21.34,6.89-32.62,7.13-12.57.26-26.19-.68-36.61-8.49-10.24-7.66-16.3-20.28-21.25-31.72-2.08-4.82-5-10.9-4.08-16.3a5.52,5.52,0,0,1,.92-2.46c0-.09,1.14-1.51.41-.64s.77-.69,1-.86c1.1-.83,0,0-.17.14a13.58,13.58,0,0,1,1.48-.86c1.22-.6,0-.09-.23,0a18.71,18.71,0,0,1,2.23-.72c.56-.15,3.35-.59,1.52-.4a34,34,0,0,1,3.64-.09c2.09,0-.37-.27,1.68.15a25.11,25.11,0,0,1,4.68,1.36c-1.49-.64,1.08.69,1.48.93a24.15,24.15,0,0,1,2.58,1.8,36.65,36.65,0,0,1,5.87,6.2c9,11.87,14.5,27,20.9,40.3,6.62,13.81,12.35,28.84,20.78,41.67,8,12.2,19.94,21,34.5,23.57a77.46,77.46,0,0,0,41.51-4.42c14.86-5.82,28.09-14.47,42-22.19,5-2.8,11.24-7,17.23-7,4.6,0,9.05,4,11.09,6.78,6.21,8.47,6.75,19,3.36,28.76s-13,18-23.19,22.13c-4,1.64-10.26,3.4-14.3,3.51-.51,0-4.26-.25-2.5,0-.8-.1-1.36.23-1.61-.51a17.75,17.75,0,0,0,1.38,1.72,24.65,24.65,0,0,1,.69,3.53c.23.17,1.29-1.14,1.68-1.5,8.5-7.92,21-12.71,31.54-9.18a17.85,17.85,0,0,1,10.24,8.64l7.12-17.49c-7.95,2.5-17.67.09-22.93-7.3-2-2.76-3.78-5-.2-6.74,4.3-2.05,8.95-1.59,13.46-.27,12.13,3.56,21.18,13.14,29.6,22,8.95,9.46,18.32,19.45,30.12,25.37,6.63,3.33,14.42,6.22,22,5.61,9.21-.74,15.8-6.8,18.8-15.3,4-11.31.38-23.9-5-34.07-4.7-8.93-11.21-16.74-16.26-25.45a57.84,57.84,0,0,1-3.18-6.16c.74,1.74-.23-.76-.41-1.32a38.55,38.55,0,0,1-1.08-4.23c.41,2,0-.29,0-1.14a24,24,0,0,1,.13-3.28c-.26,2.11.31-.82.51-1.46a6.08,6.08,0,0,1,1.31-2.57c4.37-6.48,14.14-8.92,22-5.42,10.58,4.73,16.41,15.09,18.87,26.43A73.74,73.74,0,0,1,436,378.79,44.75,44.75,0,0,1,432.82,393c-.34.76-2.53,4.57-2.92,5.08.18-.24-1.4,1.48-1.9,1.95-1,.92-.1.19.13,0a14.4,14.4,0,0,1-2,1.23c-1.68.91.38.15-1.53.48,1.75-.3-1.13.06-1.73.07-1.35,0-1.89-.28-3.4-1.39-1.09-.8-.14,0,.06.11a13.93,13.93,0,0,1-1.32-1.23c-.5-.51-2-2.21-1.87-2.06a53.5,53.5,0,0,1-3.55-6.4A61.84,61.84,0,0,1,409.34,377c-.6-5.66-1.09-11.95,1.06-17.23a10.58,10.58,0,0,1,3.34-4.77c1-.87.26-.33,0-.15a13.89,13.89,0,0,1,1.58-1c.55-.33,1.09-.65,1.66-.94,3.34-1.71-.75.15,1.28-.52a20.8,20.8,0,0,1,12.37-.5,23.81,23.81,0,0,1,11.48,7.54c7.76,8.69,9.6,21.29,9,32.82a113.92,113.92,0,0,1-4,22.12c-1.59,6.12-3.23,13-5.51,18.61-2.05,5-4.62,8.6-9.81,10.45-6.16,2.21-13.2,3.12-19.67,4s-13.14,1.28-19.39-.42-11.44-6.08-17.15-9.13c-13.83-7.37-29-6.6-41,4-11.56,10.17-14.33,26.32-7.77,40,5.79,12,19.11,20.43,31.95,22.87,16.6,3.17,32.9-.57,49.5-1.57a210.42,210.42,0,0,1,45.83,2,224.45,224.45,0,0,1,22.66,4.87c3.58,1,7.16,2,10.67,3.18.27.09,2.14.56,2.06.83,0-.15-.46-.43-.42-.63a32,32,0,0,0-.52-3.63c-.15-2.05,1-1-.6-.28-.83.39-1.71,1.11-2.61,1.53a46,46,0,0,1-10.81,3.19,50.14,50.14,0,0,1-18.6.12c-4.41-.82-11.5-2.16-14-5.47-2.89-3.85-2.26-10.93-2.08-15.65a81.5,81.5,0,0,1,8.62-32.46c10.91-21.75,29-39.22,50-51.32,6.49-3.74,13.51-6.95,17.42-13.74,4.13-7.15,3.5-16.12,3.78-24.08s.58-16.17.84-24.26c.3-8.91-1.58-17.72-10.12-22.26-11.29-6-28-1.49-39.1,3a90.37,90.37,0,0,0-32.86,22.18C429.81,359.49,421.4,372,419,384.69c-3.4,18.26,12.83,28.27,28.41,32a66.15,66.15,0,0,0,41.83-3.92c12.36-5.38,21.67-15.21,29.19-26.16,7.12-10.37,12.47-21.85,19.77-32.11s19.19-17.2,27.23-27.27c9.39-11.74,13.86-28.69,5.21-42.14-3.38-5.26-10.66-7.85-16.29-4.28-11.24,7.14-16.54,18.68-20,31.1-1.54,5.5-2.81,11.09-4.7,16.49-.26.75-.53,1.51-.83,2.25.1-.24.62-1.37,0-.12a38.53,38.53,0,0,1-1.85,3.62,27.5,27.5,0,0,1-1.88,2.89c1.3-1.68-2,1.66-2,1.85,0-.36,6.77,1.66,6.93,1.79l.71,1.2c.69,1.42.87,1.63.55.63-.43,0,.06-1.05-.06.18.07-.74,0-1.65,0-2.41,0-4.47.29-9,.55-13.44q.76-13.44,2.44-26.8c2-15.7,9.37-35.06,1.24-50-8.56-15.76-29.51-16.88-43.36-7.82-12.8,8.38-26.82,23.77-25.91,40.08,1,18.52,15.25,29.92,29.27,39.74,5.44,3.81,10.71,7.92,14.48,13.48a71.9,71.9,0,0,1,8.79,18.42c5.75,17.64,8.81,36.47,10.68,54.88a116.63,116.63,0,0,1,.75,11.8,40.44,40.44,0,0,1-.68,8.88,22.52,22.52,0,0,1-2.46,7.23c-1.12,1.9-.18.84-1.82,2.33-1,.89-.14.23.08.06a17.77,17.77,0,0,1-3.27,1.83l14.43,1.86c-8.54-7.85-9.45-21.18-12.3-32.94C521,396.69,513.83,383,501.84,376c-6.86-4-14.42-4.92-22.18-3.59-1.85.32-7.09,1.15-7.34,1.46-1.3,1.55-.12-1,0,.08,0,0,3.3,2.69,3.27,2.68.63.25-.33,1.59.18.06a13,13,0,0,0,.07-2.73A255.78,255.78,0,0,0,474,326.09a232.85,232.85,0,0,0-11.09-46.22c-5.06-14.32-11-30-20.09-42.33-4.78-6.46-11-11.63-19.08-13.13s-16.67.47-24.42,3.26a104.48,104.48,0,0,0-35.47,21.58,106.27,106.27,0,0,0-25.7,36.94,92.75,92.75,0,0,0-6.27,21.26c-.64,4-.79,8.12-1.4,12.14.28-1.84-.84,2.41-.91,2.86.17-1.1.4-.13,0-.19-.58.88-.32.69.79-.57q2.26-2.85,6.44-1.71l8.32,8.32c-5.8-19.27,4.14-39.08,2.77-58.61-1.17-16.64-7.87-34.94-24.15-42.2-4.18-1.86-8.26-2.57-12.72-3.45-1.07-.21-4-1.15-4-1.15s.81.65.63.77-.2-1.65-.13-.24A20,20,0,0,1,309,215.7,78,78,0,0,1,317,202.09c4.39-6.28,10.68-14.5,17.86-17.68a5,5,0,0,1,2.85-.66c-.89,0,.59.46.95.79a9.74,9.74,0,0,1,1.86,2.59,17.31,17.31,0,0,1,1.14,6c.46,12.17-1.87,24.77-3,36.86q-1.87,19.4-3.76,38.8c-.81,8.35,8.21,12.72,15.07,11.48,11.9-2.16,19.31-12.34,23.24-23,3.71-10.09,2.65-20.21,5.89-29.95,1-3.1,2.51-5.51,5.19-6.54,3.09-1.19,7.53-.43,11.18,1,12.13,4.8,20.56,16.91,33.33,20.44,17.55,4.84,26.88-14.61,23.07-29.15-3.46-13.21-14.42-22.76-25-30.46A117.46,117.46,0,0,0,393,165.79a108.7,108.7,0,0,0-16.13-3.73c-7.33-1.13-15.3-2.42-22.56-.29-14.61,4.3-21.59,22.94-25.44,36.14-4.29,14.71-4.75,29.81-2.53,44.88,1.14,7.72,11.55,10.67,17.5,7.11,23.39-14,26.71-46.17,21.11-70.42-5.53-24-20.83-45-40.73-59.16-18.55-13.19-44.71-20.56-66.76-12.18a44.54,44.54,0,0,0-26.93,27.44c-4.31,12.27-4.3,29.45,2.34,40.93,7.75,13.41,25.81,14.43,34.68,1.74a24.37,24.37,0,0,0-5.68-33.73C251,136.59,236,137.69,224,141.94A70.12,70.12,0,0,0,192,164.44c-7.12,8.93-12.58,18.82-18.37,28.61-5.12,8.66-10.65,17.34-17.66,22.32-3.21,2.29-7.64,5.16-11.66,4.81-3.84-.33-6.53-4-7.43-7.75-1.21-5.07,0-10.52,2-15.23a41,41,0,0,1,7.38-11.44c13.09-14.38,33.38-20.16,52.83-20,24.42.24,49.55,11.78,72.25,23.33,13.21,6.71,26.3,14.51,40.24,19.63,13.7,5,30.29,3.1,37.89-10.81,12.57-23-7.78-57.73-31.8-63.51-14.37-3.46-28.34,3.38-35.59,16-7.54,13.17-6,27.88-7.08,42.39C273.3,217,254.1,236.23,236.11,251c-19.29,15.82-41,29.08-57.08,48.47-8.51,10.28-16.78,22.51-19.39,35.83A35,35,0,0,0,162.85,359c1.23,2.31,2.85,4.38,4.12,6.66,1.09,2,1.77,4.3,1.64,5-2,10.89-13.67,16.53-22.81,21.51-12,6.52-22.43,14.08-29.35,26.11-5.75,10-8.87,23.21-18,30.36-4.51,3.54-9.81,6-14.42,9.4-6.65,4.93-12.54,11.36-14.81,19.53-4.06,14.53,4.82,27.34,18.16,32.5,12.21,4.72,25.57,2.37,37.22-2.77a62.22,62.22,0,0,0,16.7-11c3.8-3.44,7.95-8.57,10.92-11.48,1.45-1.41,1.5-.56.67-.52a15.64,15.64,0,0,1,3.22.64c3.11.9,6.07,2.16,9.26,2.79a35.63,35.63,0,0,0,19.27-1.47c12.08-4.54,22.22-14.71,24.61-27.7,1.17-6.32-1.74-12.84-8.31-14.65-5.79-1.59-13.48,2-14.65,8.32-.8,4.33-1.79,6.46-5.32,9.33a17.1,17.1,0,0,1-8.5,3.1c-2.86,0-8.73-2.58-13.21-3.48a26.16,26.16,0,0,0-22.59,5.73c-8,6.5-12.79,15-22.68,19.2a29.47,29.47,0,0,1-12.29,2.74c-3.82,0-5.87-.73-9.37-2.87,1.45.89-.27-1.57.25.2-.21-.73-.35-1.56-.3-.24,0-1-.49-1.34-.19-2.07,2.21-5.24,7.91-8,12.46-10.82,10.54-6.5,18.29-14.32,23.91-25.4,4.69-9.26,8-19.87,15.95-26.6,8.4-7.13,19.35-10.66,28.18-17.24,10.19-7.6,18.47-18.38,19.59-31.41.58-6.67-1.35-13-4.68-18.75-2.39-4.1-5.49-7.09-4.92-12.05,1.14-10.06,8.8-20.28,15.25-27.65a182.49,182.49,0,0,1,24-22.18c18.07-14.38,37.61-27.08,52.81-44.72a107.81,107.81,0,0,0,18.7-29.75c4.93-12.08,5.51-24.47,5.87-37.35.14-5.09.39-10.16,2.22-15a23.25,23.25,0,0,1,2.76-4.86,8,8,0,0,1,3.59-2.53c2.23-.77,1.91-.61,3.58-.21a10.84,10.84,0,0,1,4.69,2.06,29.87,29.87,0,0,1,8.88,9.59,34,34,0,0,1,4.2,11.31,14,14,0,0,1-.09,4.83c-.31,1.29-.3,1.82-1.19,2.14-2.31.84-6.39-.2-9.92-1.54-5.64-2.12-11.05-5.2-16.42-7.93-41.74-21.24-86.81-46-134.92-31.33-19.52,6-38,18.35-47.41,36.94-5.81,11.48-9,25.46-4.4,37.94s15.76,22.34,29.52,22.5c23.24.27,39.26-20.9,49.88-38.86,10.09-17,18.17-34.71,38.55-41,4.14-1.27,8.48-2.09,11.46-1.61,2.25.37,2.76.37,4.54,1.79-1.46-1.16.24-.14-.14.18l-.44-.91c.31,1.37.32,1.35,0-.07l0,1.06c.23-1.4.19-1.42-.11,0l-.17.5c-.27.82-.21.66.18-.46l-.53.87c.88-1.07.86-1.13-.05-.18a5.26,5.26,0,0,1,2.67-1.41c.79-.14,1.68.26,2.38.12,1.51-.32.21,2.3.23-.63,0-.06,1.13,3.69-.21-1a17.63,17.63,0,0,1-.75-4,38,38,0,0,1,.94-14.19,18.42,18.42,0,0,1,6.64-10.38c-1.48,1.24,1.68-1.13,1.61-1.09a30.06,30.06,0,0,1,3.3-1.79c-.48.22-1.71.61.65-.24a35.13,35.13,0,0,1,3.66-1.11,37.36,37.36,0,0,1,12.54-.9,54.78,54.78,0,0,1,12.11,2.41A56,56,0,0,1,306.16,137a78.21,78.21,0,0,1,21.29,18.68c11.48,14.37,18.15,34.4,15.64,51.89-1.26,8.79-4.23,17.54-11.32,21.79l17.49,7.12a74.8,74.8,0,0,1,1.44-28.12A77.65,77.65,0,0,1,355,195.2c1.08-2.44,3.49-9.51,6.22-10.7s8.07.33,10.9.78A101.74,101.74,0,0,1,387.41,189a96.92,96.92,0,0,1,26,13.16c5.51,3.88,14.27,10.42,15.52,17.05.58,3.07-2.05,3.31,3,1.27,5.33-2.16,3.13-.43,1.43-2.24a19.26,19.26,0,0,0-3-1.85c-4.67-3-9-6.54-13.58-9.7-17.65-12.19-43.88-16-56.74,5.1a46,46,0,0,0-5.53,15.42c-.6,3.2-1,6.45-1.41,9.68-.12,1-.23,1.93-.35,2.89,0-.07-.61,4.11-.28,2.2a52.06,52.06,0,0,1-1.48,6.4,14.24,14.24,0,0,1-1.75,4.37c-1.23,2.23-.73,1.79-2.54,3.44,1.33-1.21-.38.33-.9.56-.73.39-.68.38.14,0a15,15,0,0,1-2.39.53l15.07,11.49q1.88-19.41,3.76-38.8c1.2-12.33,3.73-25.34,3-37.75-.7-12.06-6-24.42-17.51-29.76-12.86-5.94-25.48.19-35.25,8.91a105.36,105.36,0,0,0-21.57,27.27c-5.22,9.41-9.63,20.85-6.32,31.68a23.61,23.61,0,0,0,10.72,13.47c5.25,3.07,11,3.13,16.71,4.69,2.08.58,1.25.35.63.09a17.86,17.86,0,0,1,3.13,1.77c-1.28-.89,2,1.89,2.45,2.47a26,26,0,0,1,4.06,8.44,37.25,37.25,0,0,1,1.75,12.41,98.77,98.77,0,0,1-1.69,16.26c-2.4,14.93-4.84,29.92-.38,44.74,1.1,3.66,4.28,7.66,8.31,8.31,8.41,1.36,15.67-1.54,19.95-9.14,3.4-6,3.56-13.4,4.37-19.48a79.07,79.07,0,0,1,12.59-32.66,82,82,0,0,1,24.53-24.11A71.62,71.62,0,0,1,407,250.16a51,51,0,0,1,8.44-2.4c2.71-.42,4.84.09,6,1.11,3.72,3.31,6.88,10.59,9.46,15.81a193.76,193.76,0,0,1,8.46,19.86,221.23,221.23,0,0,1,11.32,45.26c2.05,14.94,1.89,29.77,1.33,44.79-.31,8.21,2.48,16.44,10,20.64,7.71,4.3,15.29,1.35,23.27.24a7.52,7.52,0,0,1,3.43.44c2.67,1.27,3.95,2.51,6.08,5.28,3.32,4.3,5.31,10.23,6.73,16.37,3.49,15.1,6.11,31,18.09,42,4.18,3.86,9.45,4.25,14.43,1.86C547.67,454.94,552.7,440,553.79,426c1.27-16.16-2.15-33.26-5.06-49.07s-6.53-31.7-13.86-46.09a69.66,69.66,0,0,0-14.33-19.3c-6-5.53-12.94-9.67-19.38-14.57-4.47-3.42-10-8.37-11-14-1-5.27,3.34-10,7-13.86s9.1-8.77,13.27-9c1.93-.11,3,.06,3.41.38,1.47,1.26,1.51,3,1.49,5.38,0,7.21-2.18,15-3.27,22.42-1.37,9.29-2.5,18.62-3.29,28-1.19,14.28-6.53,40.61,12.39,45.56,18.11,4.74,29-18.08,33-31.75,1.83-6.24,3.17-12.63,5.37-18.76a24.88,24.88,0,0,1,2.94-6,18.19,18.19,0,0,1,4-4l-16.29-4.28c2.45,3.82,1.53,8-1.22,12.57-3.51,5.84-9.48,10.16-14.57,14.55-10.76,9.29-18.6,20.47-25.69,32.69-6.25,10.79-11.95,22.2-21.82,29.92-8.71,6.8-21.26,9.38-31.59,7.21a42.9,42.9,0,0,1-8.41-2.54c-.71-.32-6.13-4.13-4.76-1.72.64,1.12.41-.88.81-2.16.35-1.08.94-2.72,1.25-3.44a64.52,64.52,0,0,1,30.49-31.72A62.58,62.58,0,0,1,490.69,347a35.92,35.92,0,0,1,7.4-.84c.6,0,1.79-.51.74-.15,1.42-.49,1.26,1.68.21-.35-.1-.2-3.05-3.08-2.27-3.63a17.94,17.94,0,0,0,0,3.27c-.16,8.73-.61,17.47-.92,26.2l-.2,5.82c-.06,1.66.47,4.68-.28,6.14a21.8,21.8,0,0,1-3.68,2.41c-24.17,13.39-45.62,31.71-59.89,55.65a108.9,108.9,0,0,0-14.34,38.24c-2.29,14.41-3.47,32,6.2,44.1,10,12.49,30.38,15.72,45.44,14.75,14.81-1,36.92-5.74,42-22.12,2.81-9-1.27-17.88-9.08-22.79-6.51-4.09-15.18-5.83-22.56-7.69A240.23,240.23,0,0,0,429.59,479C412.5,478.33,396,481,379,482c-6.72.4-14.18.33-20.22-2.09-4.71-1.88-9.05-5.26-11.08-9.6A9,9,0,0,1,349,461a11.25,11.25,0,0,1,8.23-4.78c-.68.1,1.11.16,1.28.19,6.36,1.14,11.72,6.23,17.37,9.18a55.87,55.87,0,0,0,24.77,6.19c8.36.2,16.76-1.23,25-2.68,7.28-1.29,14.64-2.77,21.13-6.5,14.16-8.13,18.65-24.53,22.63-39.22,8.17-30.16,9.83-67-18.1-87.69a44.46,44.46,0,0,0-38.69-6.56c-15.54,4.78-25.06,17.6-27,33.49-3,24.13,7.88,62,37.33,63,14.14.47,25.6-9.74,31.1-22,5.84-13.07,7.08-27.74,5.32-41.87-1.94-15.65-7.71-31.16-19.84-41.82-11.3-9.94-26.07-15.09-41-11.62-13.72,3.17-26.43,14.26-29.27,28.37-2.44,12.11,1.24,23.62,7.37,34,5.41,9.18,12.25,17.44,17,27,1,2.1.39.8.18.3q.33.79.6,1.59c.36,1.06.7,2.12,1,3.21.19.72.61,4,.44,1.72a36.07,36.07,0,0,1,.06,3.89c0,1.38.09-.1.13-.34s-.58,2.67-.63,2.64.66-.83.79-.85c2.27-.35,1.08-.38.13-.69-1.9-.63-3.87-1-5.73-1.76-11-4.61-19.8-15.18-28.11-23.93-10.52-11.08-22.31-21.12-37-26S291.27,355,282,368.64c-10,14.81.81,33.3,13.45,42.34a44,44,0,0,0,38.1,6.25,12.07,12.07,0,0,0,7.11-17.49c-8.13-14.86-25.65-23.14-42.33-21.49a59.82,59.82,0,0,0-25.93,8.89c-7.56,4.74-16.26,11.29-18.72,20.33-2.55,9.35,2.37,18.71,11,22.67,8,3.66,16.48,3,24.85,1.27,15.25-3.2,30-11.61,39.77-23.87a57.28,57.28,0,0,0,11.54-46.85c-3-15.79-14.9-31.77-31.09-35.61-18.78-4.45-36.54,8.76-51.89,17.74-13.39,7.82-27.85,15.78-43.26,16.05-6.45.12-12.57-.81-18.08-3.94-6-3.4-9.77-9.08-13.09-15.3-8.91-16.73-16.55-34.23-24.75-51.32-7.29-15.21-14.86-31.11-29.6-40.5-12.07-7.7-29.5-8.53-41.63-.47a30.13,30.13,0,0,0-13.36,22.54c-1,9.72,2.52,18.91,6.27,27.67,6.32,14.76,14.27,29.54,27.1,39.66C121.93,348.63,140,351.94,158,351.75c15.27-.17,32.63-1.34,45.76-10,14.49-9.58,20.76-26.05,16.93-42.92C217,282.49,203.91,270,188,265.57c-17.24-4.83-33.59-.13-49.12,7.51-5.85,2.87-12.48,6.61-19.24,5.67,1.51.21-2.15-.66-2.61-.82a15.8,15.8,0,0,1-2.55-1.26A22.37,22.37,0,0,1,109,272a16.78,16.78,0,0,1-3.48-6.65,13.72,13.72,0,0,1-.46-6.73l-23-6.33c-2.84,18.86,3.91,36.62,17.38,50s32.09,20.22,50.67,23.07a276.79,276.79,0,0,0,29.58,2.91c8.6.4,17.91-.37,25.36-5.09,16.14-10.23,17.35-33.44,13.74-50.33a69.89,69.89,0,0,0-32.75-45.22c-8.65-5-20.78,3.37-17.49,13.44,8.54,26.15,37.39,37.69,62.87,30.57,24.32-6.8,49.82-29.43,49.66-56.39-.08-12.67-6-25.46-16.78-32.46-12.43-8.08-28.07-6-41.17-.85-25.53,9.94-50,23.72-72.58,39.11-12.81,8.72-25,18.26-37,28.12-11.2,9.24-22.47,18.25-35.46,24.89-5.72,2.93-7.38,11-4.27,16.29,3.4,5.82,10.55,7.21,16.29,4.27Z"/><path class="cls-2" d="M286.09,567.42c3.55-20.11-2-40-13.85-56.55-11.95-16.66-28.48-31.38-49.53-33.84-10.13-1.19-20.13.76-30.24,1.13-8.06.29-15.17-.84-20.27-5.77s-7.36-10.84-6.65-17.49c.91-8.68,6.18-16.64,11-23.69,13.13-19.09,29-39.09,22.25-63.85-4-14.76-27-8.49-23,6.33,4.73,17.33-12,33.79-20.8,46.89-11.3,16.79-17.93,36.65-8.85,56,8.79,18.7,28.31,26.36,48,25.33,9.11-.48,18.69-2.6,27.78-1.12,8,1.31,14.82,6.4,20.54,11.87,12.78,12.22,23.79,30.49,20.62,48.45-1.12,6.32,1.7,12.83,8.31,14.64,5.76,1.58,13.53-2,14.65-8.31Z"/><path class="cls-2" d="M459.94,209.18c-1-5,4.6-8.07,8.74-8.69,5.07-.77,12.1,0,16.39,3,7.91,5.58,6.91,21.36,5.83,29.73-1.39,10.79-9.38,18.53-19,22.84-5.73,2.58-12,3.94-18.19,4.95-3,.48-5.94.9-8.93,1.19a33.86,33.86,0,0,0-3.92.19c-2.93.66.61-2.06-2,1.18,4.72-5.94-3.65-14.42-8.41-8.42-4,5-3.74,11.77,1.4,16,5.58,4.59,13.22,3,19.78,2.1,14.68-2,29.82-5.92,40.48-16.91,10.48-10.8,11.89-25.29,10.6-39.68s-8.38-25.19-23.36-27.57c-7.89-1.25-16.6-1-23.31,3.86a18.84,18.84,0,0,0-7.66,19.39c1.54,7.5,13,4.32,11.48-3.17Z"/><path class="cls-2" d="M353.39,155.92c7.23-7.62,19.47-8.55,29.4-8.77a84.77,84.77,0,0,1,33.08,5.7c18.47,7.29,33.74,22.48,40,41.41,2.4,7.24,13.91,4.14,11.48-3.16C459.69,168,441.61,150.17,419,141.37a94.85,94.85,0,0,0-38.84-6c-12.43.62-26.25,2.72-35.22,12.17-5.28,5.56,3.13,14,8.42,8.42Z"/><path class="cls-2" d="M504.32,223.32c13.73-16.73,15.54-39.8,7.58-59.57-8.5-21.12-25.78-37.41-44.34-49.9-42-28.26-92.26-33-141.62-32.88-14.54,0-29.2.31-43.67,1.71-12.89,1.25-25.65,3.93-36.68,11-2,1.29-3.74,4.26-2.74,6.72l6,14.6c2.86,7,14.38,3.94,11.48-3.16l-6-14.6L251.6,104C269.8,92.27,294.18,93.43,315,93c24.29-.5,49-.1,73.11,3.43a180.67,180.67,0,0,1,59,19c17.56,9.4,34.8,22.07,46.16,38.68,12,17.57,17.23,42.93,2.6,60.75-4.82,5.88,3.56,14.35,8.42,8.42Z"/><path class="cls-2" d="M482.89,137.73c10.58-1.1,23-3.26,31.62-10,3.55-2.8,6.33-6.61,6.54-11.28.28-6.28-5.25-9.18-10-12.17-9.84-6.21-20.95-10.37-31.57-15-11.16-4.87-22.27-9.9-33.52-14.55a130.43,130.43,0,0,0-35.48-8.85c-12.54-1.46-24.7-3.68-36.59-8-4.87-1.78-9.55-3.88-14.79-4.31-6-.5-12.15,1.13-18.05,2.18Q322.25,59,303.22,60.82q-10.64,1-21.3,1.56c-6,.31-12.32.14-17.6,3.43-9.23,5.75-10,18-9.4,27.71.47,7.61,12.38,7.67,11.91,0-.31-5-1.26-13.93,3.49-17.43,3-2.21,8.07-1.62,11.6-1.8q7.27-.37,14.53-1c18.83-1.52,37.22-4.86,55.87-7.65,8.8-1.31,16.34,3.12,24.52,5.68a149.24,149.24,0,0,0,26,5.49c9.5,1.21,18.94,2,28.12,4.94,8.53,2.69,16.68,6.46,24.86,10q14.55,6.34,29.1,12.69c9,3.93,18.21,7.89,25.87,14.13l-1.74-4.21c.47,4.54-6.17,6.5-9.58,7.68a73.85,73.85,0,0,1-16.6,3.71c-7.55.79-7.63,12.7,0,11.91Z"/><path class="cls-2" d="M472.92,92.67l20.37-10.18a5.85,5.85,0,0,0,2.95-5.14C495.86,61.64,482.06,52.2,469,46.5,453.21,39.61,436.43,36,419.51,33.23c-18.27-3-36.66-6-55.13-7.51-16.72-1.4-35.64-2.77-51.51,3.73-16.18,6.63-27.55,20.33-37.39,34.25-4.43,6.27,5.89,12.22,10.28,6C295.4,56.08,307,42.31,324,38.37c9.58-2.22,19.86-1.86,29.62-1.44,10.58.46,21.13,1.6,31.62,3,19.6,2.7,39.53,5.29,58.68,10.39,9.13,2.44,18.32,5.45,26.61,10.06,6.42,3.56,13.61,8.91,13.8,16.92l2.95-5.14L466.91,82.39c-6.86,3.42-.84,13.7,6,10.28Z"/><path class="cls-2" d="M482.32,66.76c-8.9-.85-16.32-7.59-25.08-9.39-9.8-2-20.15-1.75-30.1-2.22l-64.89-3c-7.66-.36-7.64,11.55,0,11.91l64.89,3c9.59.44,20.11-.21,29.42,2.37,9,2.51,16.18,8.32,25.76,9.24,7.62.73,7.57-11.18,0-11.91Z"/><path class="cls-2" d="M499.77,135.75c8.38,0,16.8-.27,25.18,0,6.34.19,12.35,2.22,15.14,8.42,1.12,2.5,2.2,7.34.63,9.91-1.31,2.14-4.67,2.5-7.08,3.06a54.85,54.85,0,0,1-23.24.18c-7.48-1.52-10.68,10-3.16,11.48a68,68,0,0,0,33-1.09c4.62-1.37,8.72-3.31,10.94-7.83,2.13-4.36,2.41-9.62,1.63-14.34a26,26,0,0,0-17.56-20.22c-5-1.66-10.39-1.5-15.56-1.49l-19.92,0c-7.66,0-7.67,11.92,0,11.9Z"/><path class="cls-2" d="M46.29,218.93c-1.43,15-18.3,21.64-30.34,26.31-3.29,1.27-4.68,3.84-4.16,7.32C13.62,264.83,25.67,273.88,38,271.8a23.71,23.71,0,0,0,14.46-8.54,24.8,24.8,0,0,0,4-7.55c1-3,.83-5.18,4.31-5.53a60.3,60.3,0,0,1,21.83,2.12c6.74,1.85,12.91,5.77,19.77,7.05,13.61,2.56,24.37-6.76,33-16,3.2-3.42,1.62-8.46-2.63-10a180.66,180.66,0,0,0-40.94-9.22c-11.23-1.21-27.44.35-33.39-11.63l-9.35,7.21c14.71,15.07,38.1,21.19,58.23,14.63,23.46-7.66,33.6-30.11,41.84-51.44,2.76-7.15-8.74-10.25-11.48-3.16-6.58,17-14.6,36.94-33.52,43.11a46.11,46.11,0,0,1-46.65-11.56c-4.9-5-12.26,1.33-9.35,7.21,6.52,13.13,21.36,15.82,34.59,16.78a179.12,179.12,0,0,1,46.86,9.55L127,234.94c-3.71,4-7.53,8-12.28,10.71-5.48,3.13-10.36,2.36-16,0-11.15-4.63-22.21-7.78-34.42-7.55-5.12.1-10.62.35-14.42,4.22-3.49,3.56-3.45,8.53-6,12.55-6.17,9.87-19.08,4.68-20.6-5.49l-4.16,7.33C37,249.8,56.16,240.31,58.2,218.93c.73-7.62-11.18-7.57-11.91,0Z"/><path class="cls-2" d="M166.93,76.35c-8.91,3-18-2-26.57-4.26-10-2.65-19-1.67-27.79,3.92-2.09,1.32-4.25,3.31-6.55,4.17-2.68,1-3.82-.27-6.39-1.53A45.47,45.47,0,0,0,82.3,74c-4.43-.27-9.37,0-13.3,2.3-5.08,2.93-6.46,7.91-7.29,13.32-2.3,14.89-21.4,18.48-29.88,29.33-6.5,8.31-6.79,18.82-2.86,28.37,3.61,8.78,14.13,17.24,10.53,27.48-1.79,5.11-5.55,9.51-8.67,13.86a63.43,63.43,0,0,0-8.3,15.15,55.88,55.88,0,0,0-.41,36.67c2.4,7.23,13.91,4.13,11.48-3.17A45,45,0,0,1,34,207c3.43-9,10.75-15.7,15-24.28,4.36-8.85,4.1-17.69-.83-26.27C43.5,148.35,34.59,139,39.45,129c3-6.18,10.06-9.74,15.56-13.29,5.73-3.71,11.65-7.81,15.17-13.83,2-3.43,2.64-6.93,3.25-10.77.37-2.34.33-4,2.73-4.86s5.51-.43,7.89-.12c5.48.71,9.7,3.28,14.58,5.55,5.34,2.47,9.94.94,14.73-2,4.24-2.57,8.36-6.25,13.39-7.11,4.67-.8,9.46.65,13.88,2,9.62,3,19.43,6.68,29.47,3.27,7.21-2.46,4.11-14-3.17-11.49Z"/><path class="cls-2" d="M73.48,178.57a32.35,32.35,0,0,0-.35,6.88c.06,1.19,1,4.85,0,5.85,0,0-4.13-.81-4.64-.82a13.1,13.1,0,0,0-4.4.63,11.77,11.77,0,0,0-7,7.13c-.9,2.19-1,5.69-2.68,7.41-2,2-5.76,2.42-8,4.3-3,2.48-4.3,5.69-4.81,9.49-1,7.65-4.63,13.05-12.71,14.23-7.56,1.11-4.34,12.58,3.16,11.48a25.32,25.32,0,0,0,18.55-13.49,23.43,23.43,0,0,0,2.1-6c.35-1.75,0-4.48,1-6,1.58-2.59,6.87-3.31,9.23-5.63,2.62-2.59,3.63-6,4.63-9.41.15-.52.28-1.83.66-2.21.71-.7.21,0,.33,0,1.91-.52,4.59.68,6.68.39a11.22,11.22,0,0,0,9-7.14c2-4.71.16-9.12.88-13.9,1.13-7.5-10.34-10.73-11.48-3.17Z"/><path class="cls-2" d="M77,174.12a158,158,0,0,1,5.33-42.34l-5.74,4.37,33.13-3c10.52-.95,21-1.82,30.54-6.89a48.14,48.14,0,0,0,18.84-18.58c3.8-6.64,6.47-14.93,14-18.16,7-3,1-13.28-6-10.28S155.8,88.6,152.33,95c-4.07,7.57-8,14.62-15.44,19.38-8.51,5.42-18.37,6-28.17,6.92l-32.18,2.91a6.16,6.16,0,0,0-5.74,4.37,170.06,170.06,0,0,0-5.75,45.5c.07,7.66,12,7.68,11.9,0Z"/><path class="cls-2" d="M80.63,180.18c5.47-3.47,8.86-8.62,11.47-14.43,2.25-5,4-11.79,8.32-15.45,6.84-5.73,16.5,2.18,22.62,5.45,7.31,3.9,15.3,6.07,23.45,3.45a33.2,33.2,0,0,0,17.36-13.85,33.69,33.69,0,0,0,4.47-10.51c.91-3.94.49-8.12,1.49-12,1.87-7.28,10.87-5.93,16.62-4.83,10.09,1.92,20.11,4.27,30.15,6.41,7.47,1.6,10.66-9.88,3.16-11.48l-25-5.33c-6.09-1.3-12.37-2.75-18.63-2.14-5.78.56-11.28,2.73-14.77,7.57-4.1,5.69-3,12.19-4.48,18.63a23,23,0,0,1-10,14.35c-5.95,3.71-11.85,2.62-17.77-.55-11.66-6.25-25.84-14.52-37.42-3.22-4,3.93-6.25,9.16-8.41,14.24-2,4.78-4,10.51-8.6,13.41-6.45,4.09-.49,14.4,6,10.28Z"/><path class="cls-2" d="M505.68,508.93c-1,14.74,3.05,30.72,19.75,33.74,15.5,2.8,29.1-8.08,37.06-20.37s10.77-27,11.9-41.28a233.69,233.69,0,0,0-1.3-50.09c-2.54-18.13-9.19-35.88-22.54-48.83-4.65-4.51-10.71.24-9.95,5.79a248.75,248.75,0,0,1-1.16,73.75A267.48,267.48,0,0,1,531.19,497c-1.3,4.2-2.83,9.83-6.76,12.41-1.76,1.16-6,1.8-6.75-.84-2.18-7.33-13.68-4.21-11.48,3.17,3.42,11.5,18.18,13.39,26.62,6.16,4.92-4.21,7.47-10.31,9.41-16.34,2.34-7.24,4.23-14.67,5.87-22.1a268.79,268.79,0,0,0,4-94.7l-10,5.79c12.44,12.06,17.85,28.93,19.73,45.79a223.28,223.28,0,0,1,.11,50c-1.7,14.23-6.33,29.46-17.66,39-5.61,4.74-13.92,8.14-20.88,4.12s-6.32-13.62-5.85-20.57c.53-7.65-11.38-7.62-11.9,0Z"/><path class="cls-2" d="M122.21,514.28c1.09,2.29-1.35,4.1-3.26,4.43a5.94,5.94,0,0,0-4.37,5.74,229.18,229.18,0,0,1,.81,23.73c-.08,4.89,6.76,8.22,10.17,4.21l10.49-12.34-10.16-4.21a112.06,112.06,0,0,1-4.38,36.33c-1.33,4.55,3,8.27,7.32,7.32l7-1.53a27.77,27.77,0,0,0,3.48-.76l-2.44-1,.73,2.79,4.14,15.86c1.23,4.69,8.62,6.13,10.88,1.42,1.74-3.6,2.6-8,5-11.21a18.28,18.28,0,0,1,6.79-5c5.84-2.84,12.35-4.1,18.38-6.48,6.19-2.45,11.82-5.69,15.87-11.1a68.57,68.57,0,0,0,5.29-9.13c1.37-2.58,2.95-6.25,5.85-7.44l-7.53-5.74c.77,9.51-3.24,18.53-11.38,23.72-2.46,1.56-4.16,5.5-2.14,8.14s4,5.2,6,7.82c.55.68,1.08,1.39,1.59,2.1q1,1.71.2-1.48a20.81,20.81,0,0,0-3,1.74c-5.2,2.94-10.48,5.64-15.17,9.4-8.18,6.57-13.43,16.81-10.62,27.35.78,2.92,4.31,5.25,7.33,4.16l10.61-3.87,2.66-1c1.58-.28,1.27-.91-1-1.87-.06,0,.8,2.39.79,2.36,1.87,4.95,6.07,8.61,11.65,7.45a23.44,23.44,0,0,0,6.54-3c2.45-1.41,2.91-1.38,5.54-.31,2.82,1.14,5.5,1.77,8.53,1.06,4-.93,3.27-1.58,6.17,1.7,7.77,8.77,21.81,14.29,31.76,5.41,3.74-3.34,5.45-8.17,6.61-12.91.86-3.47,1-8.44,4.62-10.18l-8.14-2.13q8.25,12.91,16.45,25.88a6,6,0,0,0,9.35,1.2A121.36,121.36,0,0,1,312,613.41c8.3-4.93,20.36-12.48,30.38-10.21,4.3,1,8.64-2.79,7.32-7.32-3.82-13-8.51-26.92-20.21-35-11.27-7.79-26.92-6.25-37.53-14.78-5.92-4.76-14.4,3.61-8.42,8.41,10.44,8.39,23.17,8.51,34.92,13.8,12.28,5.52,16.27,18.82,19.76,30.75l7.32-7.33c-12.82-2.9-25.74,3.65-36.68,9.76a133.23,133.23,0,0,0-30,23l9.35,1.21q-8.19-13-16.45-25.88a6.14,6.14,0,0,0-8.15-2.14c-4.21,2.05-6.66,5.78-8.2,10.08-1.41,3.94-1.48,8.64-3.49,12.34-2.93,5.4-9.36,3.74-13.4.53-4.6-3.64-7.25-9.7-13.88-10-2.54-.1-4.76,1.6-7.11,1.59s-4.77-2-7.24-2.23a14.56,14.56,0,0,0-7.73,1.67,17.57,17.57,0,0,0-3.25,1.84l-1,.61c-1.19.43-.79.74,1.21.92.63-3.56-4.35-8.37-7.33-9.1-3.35-.81-6.53.63-9.61,1.75l-10.62,3.87,7.32,4.15c-3.19-12,12.14-18.67,20.32-23.3,4.1-2.33,8.93-5.19,9-10.56.09-5.94-6.23-11.57-9.56-15.91l-2.13,8.15a37,37,0,0,0,17.27-34c-.27-3.4-3.65-7.33-7.53-5.74-7.77,3.18-11,9.36-14.78,16.42-3.61,6.76-8.47,10-15.64,12.5-6.65,2.29-13.69,3.93-19.83,7.49a27.9,27.9,0,0,0-7.53,6.27c-3.25,4-4.36,8.66-6.54,13.18l10.88,1.42-3.41-13c-.85-3.27-1.32-7.15-3.43-9.88-4.81-6.26-14.41-2.08-20.68-.7l7.33,7.32a122.29,122.29,0,0,0,4.8-39.49c-.2-4.74-6.62-8.37-10.16-4.2L117.14,544l10.16,4.21a229.18,229.18,0,0,0-.82-23.73l-4.37,5.74c10.12-1.77,14.51-13.21,10.38-21.92-3.28-6.92-13.55-.88-10.28,6Z"/><path class="cls-2" d="M198.28,408.47c13.1,7.38,25.15,15.52,36.06,25.93,10.51,10,19.9,21.15,29,32.47a932.54,932.54,0,0,1,56.41,78,352,352,0,0,1,25.37,45.71c3.15,7,13.42.93,10.28-6-13.25-29.37-31.67-56.23-50.4-82.34C286.81,477,268,451.05,245.87,429c-12.45-12.39-26.32-22.23-41.58-30.83-6.69-3.77-12.69,6.51-6,10.28Z"/><path class="cls-2" d="M199.42,443.9a87.41,87.41,0,0,0,26.48,30.17c3,2.16,8.06,0,8.75-3.55l3.18-16.38c.89-4.56,2-9.18-1.71-12.82-3.22-3.17-8.8-4.5-13-6-5.1-1.81-10.28-3.35-15.52-4.68-7.43-1.89-10.59,9.59-3.16,11.48,3.49.89,7,1.85,10.39,3,3.25,1,6.85,3.15,10.19,3.62l1.67.67c.3-1.95.23-1.74-.19.62-.41,1.92-.75,3.86-1.13,5.78l-2.24,11.56,8.74-3.56a74.43,74.43,0,0,1-22.21-25.9c-3.58-6.78-13.86-.77-10.28,6Z"/><path class="cls-2" d="M213.1,440c5.06-4.14.57-9.71-2.64-13.1L196.3,412v8.42c-1.73.21-2,.42-.8.63.47.13.94.27,1.39.44a25.24,25.24,0,0,1,3.24,1.42A27.21,27.21,0,0,1,206,427a27.59,27.59,0,0,1,7.59,12c2.31,7.28,13.8,4.17,11.48-3.16a40.22,40.22,0,0,0-14.65-20.54c-5.41-4-17.07-10.38-22.54-3.38-2,2.59-2.43,5.85,0,8.42l8.37,8.85,3.86,4.08c.73.77,3.65,5.16,3.31,2.12l1.74-4.21-.48.39c-5.93,4.86,2.54,13.24,8.42,8.42Z"/><path class="cls-2" d="M204.52,436.28c-10.86,3.39-16.92-7.69-18.47-16.68l-8.75,6.72q12.67,6.65,25,13.83c6.63,3.86,12.63-6.42,6-10.28q-12.36-7.19-25-13.83c-4.86-2.56-9.62,1.63-8.74,6.72,2.69,15.55,16.08,30.31,33.12,25,7.29-2.28,4.18-13.78-3.17-11.48Z"/><path class="cls-2" d="M210,417.38c.44-11.41-14.27-16.87-22.36-21.68V406a10.41,10.41,0,0,1,9.08-.74c3,1.29,6.35.86,8.14-2.13,1.5-2.5.81-6.87-2.13-8.15-7.05-3-14.3-3-21.1.73-4,2.19-3.76,8.05,0,10.29l10.62,6.3c1.7,1,5.93,2.75,5.84,5.09-.3,7.66,11.61,7.65,11.91,0Z"/><path class="cls-2" d="M251.28,483c-2.59.51-5.66-5-6.72-6.69-2.19-3.57-3.76-7.18-3.78-11.44l-7.53,5.74c9.9,3.32,15.52,13.42,19.22,22.55,2.85,7,14.37,4,11.49-3.16-5.41-13.34-13.21-26.07-27.55-30.87-3.69-1.24-7.55,2-7.53,5.74.05,12.71,10.5,32.57,25.56,29.62,7.51-1.48,4.33-13-3.16-11.49Z"/><path class="cls-2" d="M253.33,503.16a97.41,97.41,0,0,1,28,46.92c1.94,7.4,13.43,4.26,11.48-3.17a109,109,0,0,0-31.11-52.17c-5.6-5.22-14,3.18-8.42,8.42Z"/><path class="cls-2" d="M230.21,509.29c-6.9-.42-13.22-3.6-19.79-5.49-6.27-1.8-12.76-2.35-19.11-.62-11.65,3.16-20.58,12.51-32.49,14.82-7,1.35-4.72,11.21,1.58,11.69,18.15,1.39,38.71.2,54.89,9.73a69.57,69.57,0,0,1,10.44,7.86c2.76,2.4,5.57,4.24,9.42,3.61,4-.66,6.82-4.09,10.42-5.77a25.83,25.83,0,0,1,12.26-2.2c4.21.17,6.33-3.93,5.74-7.54-3.05-18.59-23-21.61-37.28-27.77-7-3-13,7.26-6,10.28,10.71,4.63,29.51,6.66,31.81,20.66l5.74-7.54c-7.29-.3-18.34,1.41-23.59,7.16-1.51.88-1.53,1.1-.09.69-.78-.74-1.59-1.47-2.41-2.17-1.62-1.39-3.3-2.71-5-4a63.23,63.23,0,0,0-10.44-6.22c-17.13-8-37.37-7.3-55.88-8.72l1.59,11.7c11.62-2.25,20.13-10.88,31.14-14.43,12.37-4,24.71,5.39,37.08,6.15,7.65.46,7.63-11.44,0-11.91Z"/><path class="cls-2" d="M37,373.81c-1.65,10,2.85,17.69,8.14,25.75,2.35,3.58,4.87,7.25,6,11.42.74,2.72.9,5.48,2.12,8.07,1.32,2.81,3.54,5.09,5.67,7.3,3.85,4,7.9,7.82,12.11,11.44s8.56,7.77,14.47,7.58c10.06-.32,20.58-9.65,27.66-16,8-7.12,17.87-15.27,21.7-25.53,1.86-5,2.19-10.38,4.81-15.1s6-8.91,7.72-14c7.7-22.6-21.28-33.43-37.49-38.79-6.18-2-13.33-4.79-19.92-4.44-6.41.34-11.12,4.74-15.91,8.51l-35.61,28c-6,4.74,2.46,13.11,8.42,8.42L71.62,357c4.13-3.25,8.24-6.52,12.39-9.76A23.79,23.79,0,0,1,88.62,344c2.53-1.13,5-.26,7.61.39a138.67,138.67,0,0,1,27.2,9.74c5.49,2.72,14.06,7.44,13.19,14.78-.41,3.46-2.77,6.63-4.57,9.49a50.48,50.48,0,0,0-5.75,11.38c-1.35,4.17-1.62,8.66-3.79,12.54-2.29,4.1-6.06,7.36-9.36,10.64-6.29,6.26-12.76,12.48-20.45,17-3.69,2.18-6.85,4.63-10.6,1.67a141.29,141.29,0,0,1-11.08-10c-1.67-1.63-3.36-3.27-4.93-5-2.17-2.41-2.49-4.46-3.19-7.55a38.81,38.81,0,0,0-4.53-10.82c-3.55-6.07-11.2-13.68-9.94-21.33,1.24-7.49-10.23-10.72-11.48-3.16Z"/><path class="cls-2" d="M60.23,360.47c-1.68-24.66-1.7-55.19,27.15-63.19,7.37-2,4.24-13.54-3.17-11.48-14.42,4-25.53,13.28-31.38,27.13-6.37,15.08-5.6,31.55-4.5,47.54.52,7.61,12.43,7.66,11.9,0Z"/><path class="cls-2" d="M58.43,475.5c6,.2,10.69-2.87,14.89-6.82a179.55,179.55,0,0,1,15.05-12.6,120.16,120.16,0,0,0,27.95-29.7c4.26-6.39-6-12.36-10.28-6A105.62,105.62,0,0,1,82.36,445.8c-4.27,3.27-8.8,6.2-12.76,9.86-3.11,2.87-6.51,8.09-11.17,7.93-7.67-.25-7.66,11.66,0,11.91Z"/><path class="cls-2" d="M245.56,375.21c7.66,0,7.67-11.9,0-11.9s-7.68,11.9,0,11.9Z"/><path class="cls-2" d="M236.58,374.48c19.59,23.4,39.8,50.72,37.89,82.86-.48,8.16-5.07,16.34-3.28,24.48,2.13,9.74,12.71,13,21.22,15.11,17.1,4.24,35.17,3,52.12-1.35,16.56-4.21,33.35-11.77,42.24-27.15,7.68-13.29-12.89-25.29-20.56-12-5.39,9.32-16.61,13.23-27.14,16-13.36,3.5-27.69,4.89-41.19,1.36-1.67-.44-3.38-1.23-5.07-1.54-.22,0-1.58-.58-1.61-.56.67-.44,2.65,6.9,3.3,6.55,1.57-.84,2.32-9,2.61-10.77a86.68,86.68,0,0,0,.73-24.07,120.67,120.67,0,0,0-14.42-44.15c-8.22-15-19-28.49-30-41.58-4.13-4.93-12.57-4.26-16.84,0-4.88,4.88-4.14,11.89,0,16.84Z"/><path class="cls-2" d="M368.63,516.43c-6.2,9.84-11.93,19.87-13.28,31.63-1.21,10.52,1,21,5.28,30.63,9.2,20.49,29.09,33.82,50.31,39.45,10.53,2.79,23.06,5.08,33.78,2.2,9.78-2.62,18.19-11,17.53-21.68s-9.95-17.15-15.3-25.58c-5.72-9-6.52-20.2-8.51-30.43-2.12-11-5.69-24.93-19.08-25.8-7.23-.47-14.33.6-21.6-.45a80.6,80.6,0,0,1-21.13-6.15c-6.94-3.1-13,7.16-6,10.28a91.35,91.35,0,0,0,44.52,8.31c5.69-.31,7.64,1.46,9.36,6.85,2.77,8.69,3.51,17.86,5.6,26.71a55.74,55.74,0,0,0,12,23.78c4.46,5.31,12.46,13.05,5.4,19.61-6.72,6.25-18.89,3.91-27,2.33-17.79-3.45-35.6-12.21-45.55-27.93a49.52,49.52,0,0,1-8-27.58c.3-11.34,6.12-20.84,12-30.17,4.09-6.5-6.2-12.48-10.28-6Z"/><path class="cls-2" d="M444.11,536.09c-.36,1.55-6.68,3.35-8.14,4.53-3.1,2.53-5.11,6-4.42,10.11,1.31,7.69,13,12.13,19.21,15.07,7.61,3.62,17.34,6.16,22.55,13.28,4.76,6.5.66,15.61,9.14,20,6.73,3.47,14.95.3,19.77-4.9,5.63-6.06,7.46-14.51,6.82-22.56-.77-9.64-5.3-19.46-4-29.19,1-7.53,4.84-16.5-4.1-21-6.82-3.46-12.86,6.81-6,10.28.36.18.14,1.12,0,2.22-.29,1.73-1,3.39-1.3,5.13a38.52,38.52,0,0,0-.36,10.72c.75,7.38,3.25,14.48,3.89,21.86.45,5.34-.1,11.88-4.7,15.45-1.43,1.1-3.57,2.18-4.69.92-.46-.52-.14-3.42-.23-4.24a21.51,21.51,0,0,0-.91-4.5c-4.29-12.94-16.94-17.79-28.26-23q-4.75-2.18-9.29-4.77c-1.33-.77-3-2.38-4.46-2.71l-1.46-.95c-.51,2.27-.07,2.74,1.32,1.39,4.91-.65,10.05-5.26,11.13-10,1.71-7.46-9.77-10.65-11.48-3.17Z"/><path class="cls-2" d="M569.18,295.45c8.13,4.26,16,1.37,23.57-2.54,3.06-1.58,7.38-4.35,11-2.84,2.6,1.08,4,4.1,4.82,6.57,4.58,13,5,33.95-12.33,36.53-7.21,1.07-15.06,1.26-18.93,8.62-3.54,6.74-.42,15,5.1,19.61,6.4,5.3,15.6,6.69,23.39,8.81,3.58,1,8.72,1.19,9.42,5.56.31,1.91-.55,8.8-4.1,7.21-5-2.22-11.64,2.64-8.14,8.15,4,6.26,9.18,15.89,7.75,23.65-1.49,8-15.94-3.09-19.4-5.17q-11.87-7.14-23.25-15c-2-1.4-4-2.81-6-4.25-1.06-.76-3.62-2.12-4.38-3.19-1.31-1.85-.58-1.09.68-3.5a20.31,20.31,0,0,0,1.89-5.78c1.46-8.12-2.12-16.23-.39-24.29,1.8-8.35,7.74-15.26,12.41-22.17,8.61-12.74,14.4-29.85,2.67-42.74-5.16-5.68-13.56,2.76-8.42,8.42,10.64,11.69-5.13,28.49-11.25,38.11-4.18,6.58-7.43,13.88-7.78,21.77-.31,7.05,3.42,15.52-.19,22-1.75,3.16-3.48,5.71-2.63,9.53.74,3.34,3.11,5.84,5.7,7.89,6.63,5.28,13.82,10,20.9,14.63s14.55,9.25,22,13.52c6.21,3.54,13.68,7.19,20.8,3.93,16.54-7.59,6-32.67-.82-43.38l-8.14,8.14c15.07,6.74,26.26-10.53,20.53-24-3.24-7.62-11.34-9.11-18.55-11.07-4.18-1.14-19.61-3.13-19.38-9.67.11-3.07,4.13-3,6.49-3.25,3.65-.42,7.12-.79,10.56-2.17a28.73,28.73,0,0,0,15-13.54c3.53-7.06,3.56-14.91,2.77-22.6-.66-6.51-1.62-13.22-4.84-19-3.61-6.53-10.05-10.72-17.65-10.08-4.5.38-8.58,2.29-12.54,4.33-3.43,1.78-8.38,5-12.31,2.95-6.78-3.55-12.8,6.72-6,10.28Z"/></svg>